<mxfile host="app.diagrams.net" agent="Mozilla/5.0 (Windows NT 10.0; Win64; x64) AppleWebKit/537.36 (KHTML, like Gecko) Chrome/129.0.0.0 Safari/537.36" version="24.7.17">
  <diagram id="prtHgNgQTEPvFCAcTncT" name="Page-1">
    <mxGraphModel dx="2620" dy="945" grid="1" gridSize="10" guides="1" tooltips="1" connect="1" arrows="1" fold="1" page="1" pageScale="1" pageWidth="827" pageHeight="1169" math="0" shadow="0">
      <root>
        <mxCell id="0" />
        <mxCell id="1" parent="0" />
        <mxCell id="dNxyNK7c78bLwvsdeMH5-19" value="GateWatch" style="swimlane;html=1;childLayout=stackLayout;resizeParent=1;resizeParentMax=0;horizontal=0;startSize=20;horizontalStack=0;" parent="1" vertex="1">
          <mxGeometry x="-20" y="140" width="1540" height="1100" as="geometry" />
        </mxCell>
        <mxCell id="dNxyNK7c78bLwvsdeMH5-20" value="Analista" style="swimlane;html=1;startSize=20;horizontal=0;" parent="dNxyNK7c78bLwvsdeMH5-19" vertex="1">
          <mxGeometry x="20" width="1520" height="320" as="geometry" />
        </mxCell>
        <mxCell id="-qNcjnmQ07-9QRYc9Np3-43" value="" style="edgeStyle=orthogonalEdgeStyle;rounded=0;orthogonalLoop=1;jettySize=auto;html=1;" parent="dNxyNK7c78bLwvsdeMH5-20" source="-qNcjnmQ07-9QRYc9Np3-41" target="-qNcjnmQ07-9QRYc9Np3-42" edge="1">
          <mxGeometry relative="1" as="geometry" />
        </mxCell>
        <mxCell id="-qNcjnmQ07-9QRYc9Np3-41" value="Receber métricas :&lt;div&gt;Comparação de CPU&lt;/div&gt;&lt;div&gt;Comparação de RAM&lt;/div&gt;&lt;div&gt;Comparação de Disco&lt;/div&gt;" style="rounded=0;whiteSpace=wrap;html=1;" parent="dNxyNK7c78bLwvsdeMH5-20" vertex="1">
          <mxGeometry x="580" y="130" width="140" height="80" as="geometry" />
        </mxCell>
        <mxCell id="-qNcjnmQ07-9QRYc9Np3-46" value="" style="edgeStyle=orthogonalEdgeStyle;rounded=0;orthogonalLoop=1;jettySize=auto;html=1;" parent="dNxyNK7c78bLwvsdeMH5-20" source="-qNcjnmQ07-9QRYc9Np3-42" target="-qNcjnmQ07-9QRYc9Np3-45" edge="1">
          <mxGeometry relative="1" as="geometry" />
        </mxCell>
        <mxCell id="-qNcjnmQ07-9QRYc9Np3-50" style="edgeStyle=orthogonalEdgeStyle;rounded=0;orthogonalLoop=1;jettySize=auto;html=1;exitX=0.5;exitY=0;exitDx=0;exitDy=0;entryX=0.5;entryY=0;entryDx=0;entryDy=0;" parent="dNxyNK7c78bLwvsdeMH5-20" source="-qNcjnmQ07-9QRYc9Np3-42" target="-qNcjnmQ07-9QRYc9Np3-41" edge="1">
          <mxGeometry relative="1" as="geometry">
            <Array as="points">
              <mxPoint x="870" y="70" />
              <mxPoint x="650" y="70" />
            </Array>
          </mxGeometry>
        </mxCell>
        <mxCell id="-qNcjnmQ07-9QRYc9Np3-42" value="" style="rhombus;whiteSpace=wrap;html=1;rounded=0;" parent="dNxyNK7c78bLwvsdeMH5-20" vertex="1">
          <mxGeometry x="830" y="130" width="80" height="80" as="geometry" />
        </mxCell>
        <mxCell id="-qNcjnmQ07-9QRYc9Np3-44" value="Houver Métrica&lt;div&gt;fora do padrão&lt;/div&gt;" style="text;html=1;align=center;verticalAlign=middle;whiteSpace=wrap;rounded=0;" parent="dNxyNK7c78bLwvsdeMH5-20" vertex="1">
          <mxGeometry x="730" y="120" width="97" height="50" as="geometry" />
        </mxCell>
        <mxCell id="wGDnF6_-XXZ3W9rCwHH7-2" value="" style="edgeStyle=orthogonalEdgeStyle;rounded=0;orthogonalLoop=1;jettySize=auto;html=1;" edge="1" parent="dNxyNK7c78bLwvsdeMH5-20" source="-qNcjnmQ07-9QRYc9Np3-45" target="wGDnF6_-XXZ3W9rCwHH7-1">
          <mxGeometry relative="1" as="geometry" />
        </mxCell>
        <mxCell id="-qNcjnmQ07-9QRYc9Np3-45" value="Emitir alerta" style="whiteSpace=wrap;html=1;rounded=0;" parent="dNxyNK7c78bLwvsdeMH5-20" vertex="1">
          <mxGeometry x="970" y="140" width="120" height="60" as="geometry" />
        </mxCell>
        <mxCell id="-qNcjnmQ07-9QRYc9Np3-47" value="Sim" style="text;html=1;align=center;verticalAlign=middle;whiteSpace=wrap;rounded=0;" parent="dNxyNK7c78bLwvsdeMH5-20" vertex="1">
          <mxGeometry x="890" y="130" width="97" height="50" as="geometry" />
        </mxCell>
        <mxCell id="-qNcjnmQ07-9QRYc9Np3-51" value="Não" style="text;html=1;align=center;verticalAlign=middle;whiteSpace=wrap;rounded=0;" parent="dNxyNK7c78bLwvsdeMH5-20" vertex="1">
          <mxGeometry x="710" y="30" width="97" height="50" as="geometry" />
        </mxCell>
        <mxCell id="wGDnF6_-XXZ3W9rCwHH7-1" value="Indentificar Incidente/Problema" style="whiteSpace=wrap;html=1;rounded=0;" vertex="1" parent="dNxyNK7c78bLwvsdeMH5-20">
          <mxGeometry x="970" y="240" width="120" height="60" as="geometry" />
        </mxCell>
        <mxCell id="dNxyNK7c78bLwvsdeMH5-21" value="&#39;r´´&amp;nbsp; &amp;nbsp; &amp;nbsp; &amp;nbsp; &amp;nbsp;&lt;div&gt;&lt;br&gt;&lt;/div&gt;&lt;div&gt;&lt;br&gt;&lt;/div&gt;&lt;div&gt;&lt;br&gt;&lt;/div&gt;&lt;div&gt;&lt;br&gt;&lt;/div&gt;&lt;div&gt;&lt;br&gt;&lt;/div&gt;&lt;div&gt;&lt;br&gt;&lt;/div&gt;&lt;div&gt;&lt;br&gt;&lt;/div&gt;&lt;div&gt;&lt;br&gt;&lt;/div&gt;&lt;div&gt;&lt;br&gt;&lt;/div&gt;&lt;div&gt;&lt;br&gt;&lt;/div&gt;&lt;div&gt;&lt;br&gt;&lt;/div&gt;&lt;div&gt;&lt;br&gt;&lt;/div&gt;&lt;div&gt;&lt;br&gt;&lt;/div&gt;&lt;div&gt;&lt;br&gt;&lt;/div&gt;&lt;div&gt;&lt;br&gt;&lt;/div&gt;&lt;div&gt;&lt;br&gt;&lt;/div&gt;&lt;div&gt;&lt;br&gt;&lt;/div&gt;&lt;div&gt;&lt;br&gt;&lt;/div&gt;&lt;div&gt;&lt;br&gt;&lt;/div&gt;&lt;div&gt;&lt;br&gt;&lt;/div&gt;&lt;div&gt;&lt;br&gt;&lt;/div&gt;&lt;div&gt;&lt;br&gt;&lt;/div&gt;&lt;div&gt;&lt;br&gt;&lt;/div&gt;&lt;div&gt;&lt;br&gt;&lt;/div&gt;&lt;div&gt;&lt;br&gt;&lt;/div&gt;&lt;div&gt;&lt;br&gt;&lt;/div&gt;&lt;div&gt;&lt;br&gt;&lt;/div&gt;&lt;div&gt;&lt;br&gt;&lt;/div&gt;&lt;div&gt;&lt;br&gt;&lt;/div&gt;&lt;div&gt;&lt;br&gt;&lt;/div&gt;&lt;div&gt;&lt;br&gt;&lt;/div&gt;&lt;div&gt;&lt;br&gt;&lt;/div&gt;&lt;div&gt;&lt;br&gt;&lt;/div&gt;&lt;div&gt;&lt;br&gt;&lt;/div&gt;&lt;div&gt;&lt;br&gt;&lt;/div&gt;&lt;div&gt;&lt;br&gt;&lt;/div&gt;&lt;div&gt;&lt;br&gt;&lt;/div&gt;&lt;div&gt;&lt;br&gt;&lt;/div&gt;&lt;div&gt;&lt;br&gt;&lt;/div&gt;&lt;div&gt;&lt;br&gt;&lt;/div&gt;&lt;div&gt;&lt;br&gt;&lt;/div&gt;&lt;div&gt;&lt;br&gt;&lt;/div&gt;&lt;div&gt;&lt;br&gt;&lt;/div&gt;&lt;div&gt;&lt;br&gt;&lt;/div&gt;&lt;div&gt;&lt;br&gt;&lt;/div&gt;&lt;div&gt;&lt;br&gt;&lt;/div&gt;&lt;div&gt;&lt;br&gt;&lt;/div&gt;&lt;div&gt;&lt;br&gt;&lt;/div&gt;&lt;div&gt;&lt;br&gt;&lt;/div&gt;&lt;div&gt;&lt;br&gt;&lt;/div&gt;&lt;div&gt;&lt;br&gt;&lt;/div&gt;&lt;div&gt;&lt;br&gt;&lt;/div&gt;&lt;div&gt;&lt;br&gt;&lt;/div&gt;&lt;div&gt;&lt;br&gt;&lt;/div&gt;&lt;div&gt;&lt;br&gt;&lt;/div&gt;&lt;div&gt;&lt;br&gt;&lt;/div&gt;&lt;div&gt;&lt;br&gt;&lt;/div&gt;&lt;div&gt;&lt;br&gt;&lt;/div&gt;&lt;div&gt;&lt;br&gt;&lt;/div&gt;&lt;div&gt;&lt;br&gt;&lt;/div&gt;&lt;div&gt;&lt;br&gt;&lt;/div&gt;&lt;div&gt;&lt;br&gt;&lt;/div&gt;&lt;div&gt;&lt;br&gt;&lt;/div&gt;&lt;div&gt;&lt;br&gt;&lt;/div&gt;&lt;div&gt;&lt;br&gt;&lt;/div&gt;&lt;div&gt;&lt;br&gt;&lt;/div&gt;" style="swimlane;html=1;startSize=20;horizontal=0;" parent="dNxyNK7c78bLwvsdeMH5-19" vertex="1">
          <mxGeometry x="20" y="320" width="1520" height="440" as="geometry" />
        </mxCell>
        <mxCell id="-qNcjnmQ07-9QRYc9Np3-9" value="" style="edgeStyle=orthogonalEdgeStyle;rounded=0;orthogonalLoop=1;jettySize=auto;html=1;" parent="dNxyNK7c78bLwvsdeMH5-21" source="-qNcjnmQ07-9QRYc9Np3-6" target="-qNcjnmQ07-9QRYc9Np3-8" edge="1">
          <mxGeometry relative="1" as="geometry" />
        </mxCell>
        <mxCell id="-qNcjnmQ07-9QRYc9Np3-6" value="Iniciar a captura de&lt;div&gt;dados do totem&lt;/div&gt;" style="rounded=0;whiteSpace=wrap;html=1;" parent="dNxyNK7c78bLwvsdeMH5-21" vertex="1">
          <mxGeometry x="140" y="30" width="120" height="60" as="geometry" />
        </mxCell>
        <mxCell id="-qNcjnmQ07-9QRYc9Np3-12" value="" style="edgeStyle=orthogonalEdgeStyle;rounded=0;orthogonalLoop=1;jettySize=auto;html=1;" parent="dNxyNK7c78bLwvsdeMH5-21" source="-qNcjnmQ07-9QRYc9Np3-8" target="-qNcjnmQ07-9QRYc9Np3-11" edge="1">
          <mxGeometry relative="1" as="geometry" />
        </mxCell>
        <mxCell id="-qNcjnmQ07-9QRYc9Np3-8" value="Armazenar o json no Bucket Raw" style="whiteSpace=wrap;html=1;rounded=0;" parent="dNxyNK7c78bLwvsdeMH5-21" vertex="1">
          <mxGeometry x="140" y="180" width="120" height="60" as="geometry" />
        </mxCell>
        <mxCell id="-qNcjnmQ07-9QRYc9Np3-10" value="Envia json com os dados para o bucket" style="text;html=1;align=center;verticalAlign=middle;whiteSpace=wrap;rounded=0;" parent="dNxyNK7c78bLwvsdeMH5-21" vertex="1">
          <mxGeometry x="100" y="100" width="86" height="70" as="geometry" />
        </mxCell>
        <mxCell id="-qNcjnmQ07-9QRYc9Np3-19" value="" style="edgeStyle=orthogonalEdgeStyle;rounded=0;orthogonalLoop=1;jettySize=auto;html=1;" parent="dNxyNK7c78bLwvsdeMH5-21" source="-qNcjnmQ07-9QRYc9Np3-11" target="-qNcjnmQ07-9QRYc9Np3-18" edge="1">
          <mxGeometry relative="1" as="geometry" />
        </mxCell>
        <mxCell id="-qNcjnmQ07-9QRYc9Np3-11" value="Receber e Transformaro json com os dados para csv" style="whiteSpace=wrap;html=1;rounded=0;" parent="dNxyNK7c78bLwvsdeMH5-21" vertex="1">
          <mxGeometry x="128.5" y="330" width="143" height="60" as="geometry" />
        </mxCell>
        <mxCell id="-qNcjnmQ07-9QRYc9Np3-16" style="edgeStyle=orthogonalEdgeStyle;rounded=0;orthogonalLoop=1;jettySize=auto;html=1;exitX=1;exitY=0.5;exitDx=0;exitDy=0;entryX=0;entryY=0.5;entryDx=0;entryDy=0;" parent="dNxyNK7c78bLwvsdeMH5-21" source="dNxyNK7c78bLwvsdeMH5-23" target="-qNcjnmQ07-9QRYc9Np3-6" edge="1">
          <mxGeometry relative="1" as="geometry" />
        </mxCell>
        <mxCell id="dNxyNK7c78bLwvsdeMH5-23" value="" style="ellipse;whiteSpace=wrap;html=1;fillStyle=solid;fillColor=#00FF00;" parent="dNxyNK7c78bLwvsdeMH5-21" vertex="1">
          <mxGeometry x="50" y="40" width="40" height="40" as="geometry" />
        </mxCell>
        <mxCell id="-qNcjnmQ07-9QRYc9Np3-17" value="ETL Java captura json do bucket" style="text;html=1;align=center;verticalAlign=middle;whiteSpace=wrap;rounded=0;" parent="dNxyNK7c78bLwvsdeMH5-21" vertex="1">
          <mxGeometry x="66" y="270" width="120" height="30" as="geometry" />
        </mxCell>
        <mxCell id="-qNcjnmQ07-9QRYc9Np3-22" value="" style="edgeStyle=orthogonalEdgeStyle;rounded=0;orthogonalLoop=1;jettySize=auto;html=1;" parent="dNxyNK7c78bLwvsdeMH5-21" source="-qNcjnmQ07-9QRYc9Np3-18" target="-qNcjnmQ07-9QRYc9Np3-21" edge="1">
          <mxGeometry relative="1" as="geometry" />
        </mxCell>
        <mxCell id="-qNcjnmQ07-9QRYc9Np3-18" value="Armazenar o csv no Bucket Trusted" style="whiteSpace=wrap;html=1;rounded=0;" parent="dNxyNK7c78bLwvsdeMH5-21" vertex="1">
          <mxGeometry x="380" y="330" width="120" height="60" as="geometry" />
        </mxCell>
        <mxCell id="-qNcjnmQ07-9QRYc9Np3-20" value="Envia o csv para o bucket trusted" style="text;html=1;align=center;verticalAlign=middle;whiteSpace=wrap;rounded=0;" parent="dNxyNK7c78bLwvsdeMH5-21" vertex="1">
          <mxGeometry x="280" y="310" width="97" height="50" as="geometry" />
        </mxCell>
        <mxCell id="-qNcjnmQ07-9QRYc9Np3-24" value="" style="edgeStyle=orthogonalEdgeStyle;rounded=0;orthogonalLoop=1;jettySize=auto;html=1;" parent="dNxyNK7c78bLwvsdeMH5-21" source="-qNcjnmQ07-9QRYc9Np3-21" target="-qNcjnmQ07-9QRYc9Np3-23" edge="1">
          <mxGeometry relative="1" as="geometry" />
        </mxCell>
        <mxCell id="-qNcjnmQ07-9QRYc9Np3-21" value="Coletar fatias de dados para insights" style="whiteSpace=wrap;html=1;rounded=0;" parent="dNxyNK7c78bLwvsdeMH5-21" vertex="1">
          <mxGeometry x="380" y="180" width="120" height="60" as="geometry" />
        </mxCell>
        <mxCell id="-qNcjnmQ07-9QRYc9Np3-23" value="Armazenar o csv no Bucket Curated" style="whiteSpace=wrap;html=1;rounded=0;" parent="dNxyNK7c78bLwvsdeMH5-21" vertex="1">
          <mxGeometry x="590" y="180" width="120" height="60" as="geometry" />
        </mxCell>
        <mxCell id="-qNcjnmQ07-9QRYc9Np3-25" value="ETL Java captura&lt;div&gt;dados do csv&lt;/div&gt;" style="text;html=1;align=center;verticalAlign=middle;whiteSpace=wrap;rounded=0;" parent="dNxyNK7c78bLwvsdeMH5-21" vertex="1">
          <mxGeometry x="320" y="270" width="120" height="30" as="geometry" />
        </mxCell>
        <mxCell id="-qNcjnmQ07-9QRYc9Np3-26" value="Envia dados selecionados para insights" style="text;html=1;align=center;verticalAlign=middle;whiteSpace=wrap;rounded=0;" parent="dNxyNK7c78bLwvsdeMH5-21" vertex="1">
          <mxGeometry x="493" y="140" width="97" height="50" as="geometry" />
        </mxCell>
        <mxCell id="-qNcjnmQ07-9QRYc9Np3-37" value="Envia Informação para Dashboard&lt;div&gt;do Analista&lt;/div&gt;" style="text;html=1;align=center;verticalAlign=middle;whiteSpace=wrap;rounded=0;" parent="dNxyNK7c78bLwvsdeMH5-21" vertex="1">
          <mxGeometry x="670" y="30" width="97" height="50" as="geometry" />
        </mxCell>
        <mxCell id="-qNcjnmQ07-9QRYc9Np3-38" value="Envia Informação para Dashboard&lt;div&gt;do Gerente&lt;/div&gt;" style="text;html=1;align=center;verticalAlign=middle;whiteSpace=wrap;rounded=0;" parent="dNxyNK7c78bLwvsdeMH5-21" vertex="1">
          <mxGeometry x="1040" y="200" width="97" height="50" as="geometry" />
        </mxCell>
        <mxCell id="-qNcjnmQ07-9QRYc9Np3-53" value="" style="ellipse;whiteSpace=wrap;html=1;fillStyle=solid;fillColor=#fa000c;" parent="dNxyNK7c78bLwvsdeMH5-21" vertex="1">
          <mxGeometry x="1420" y="175" width="40" height="40" as="geometry" />
        </mxCell>
        <mxCell id="-qNcjnmQ07-9QRYc9Np3-80" value="Implementar&amp;nbsp;&lt;div&gt;Solução&lt;/div&gt;" style="text;html=1;align=center;verticalAlign=middle;whiteSpace=wrap;rounded=0;" parent="dNxyNK7c78bLwvsdeMH5-21" vertex="1">
          <mxGeometry x="1391.5" y="120" width="97" height="50" as="geometry" />
        </mxCell>
        <mxCell id="-qNcjnmQ07-9QRYc9Np3-39" style="edgeStyle=orthogonalEdgeStyle;rounded=0;orthogonalLoop=1;jettySize=auto;html=1;exitX=0.5;exitY=0;exitDx=0;exitDy=0;entryX=0.5;entryY=1;entryDx=0;entryDy=0;" parent="dNxyNK7c78bLwvsdeMH5-19" source="-qNcjnmQ07-9QRYc9Np3-23" edge="1" target="-qNcjnmQ07-9QRYc9Np3-41">
          <mxGeometry relative="1" as="geometry">
            <mxPoint x="670.0588235294117" y="270" as="targetPoint" />
          </mxGeometry>
        </mxCell>
        <mxCell id="wGDnF6_-XXZ3W9rCwHH7-4" style="edgeStyle=orthogonalEdgeStyle;rounded=0;orthogonalLoop=1;jettySize=auto;html=1;exitX=0.5;exitY=1;exitDx=0;exitDy=0;" edge="1" parent="dNxyNK7c78bLwvsdeMH5-19" source="wGDnF6_-XXZ3W9rCwHH7-1" target="-qNcjnmQ07-9QRYc9Np3-64">
          <mxGeometry relative="1" as="geometry" />
        </mxCell>
        <mxCell id="dNxyNK7c78bLwvsdeMH5-22" value="Gerente" style="swimlane;html=1;startSize=20;horizontal=0;" parent="dNxyNK7c78bLwvsdeMH5-19" vertex="1">
          <mxGeometry x="20" y="760" width="1520" height="340" as="geometry" />
        </mxCell>
        <mxCell id="-qNcjnmQ07-9QRYc9Np3-69" style="edgeStyle=orthogonalEdgeStyle;rounded=0;orthogonalLoop=1;jettySize=auto;html=1;exitX=0.5;exitY=1;exitDx=0;exitDy=0;entryX=0;entryY=0.5;entryDx=0;entryDy=0;" parent="dNxyNK7c78bLwvsdeMH5-22" source="-qNcjnmQ07-9QRYc9Np3-64" target="-qNcjnmQ07-9QRYc9Np3-68" edge="1">
          <mxGeometry relative="1" as="geometry" />
        </mxCell>
        <mxCell id="-qNcjnmQ07-9QRYc9Np3-64" value="&lt;div style=&quot;&quot;&gt;&lt;span style=&quot;background-color: initial;&quot;&gt;Receber Métricas e Relatórios:&lt;/span&gt;&lt;/div&gt;&lt;div style=&quot;&quot;&gt;Uptime e Downtime.&lt;/div&gt;&lt;div style=&quot;&quot;&gt;Processos Ativos e ociosos.&lt;/div&gt;&lt;div style=&quot;&quot;&gt;Totem com maior uso.&lt;/div&gt;&lt;div style=&quot;&quot;&gt;Reclamações por totem.&lt;/div&gt;&lt;div style=&quot;&quot;&gt;Impacto Financeiro&lt;/div&gt;" style="rounded=0;whiteSpace=wrap;html=1;align=center;" parent="dNxyNK7c78bLwvsdeMH5-22" vertex="1">
          <mxGeometry x="960" y="55" width="140" height="140" as="geometry" />
        </mxCell>
        <mxCell id="-qNcjnmQ07-9QRYc9Np3-77" style="edgeStyle=orthogonalEdgeStyle;rounded=0;orthogonalLoop=1;jettySize=auto;html=1;exitX=0.5;exitY=0;exitDx=0;exitDy=0;entryX=1;entryY=0.5;entryDx=0;entryDy=0;" parent="dNxyNK7c78bLwvsdeMH5-22" source="-qNcjnmQ07-9QRYc9Np3-68" target="-qNcjnmQ07-9QRYc9Np3-64" edge="1">
          <mxGeometry relative="1" as="geometry" />
        </mxCell>
        <mxCell id="-qNcjnmQ07-9QRYc9Np3-68" value="" style="rhombus;whiteSpace=wrap;html=1;" parent="dNxyNK7c78bLwvsdeMH5-22" vertex="1">
          <mxGeometry x="1210" y="230" width="80" height="80" as="geometry" />
        </mxCell>
        <mxCell id="-qNcjnmQ07-9QRYc9Np3-72" value="Houveram Problemas" style="text;html=1;align=center;verticalAlign=middle;whiteSpace=wrap;rounded=0;" parent="dNxyNK7c78bLwvsdeMH5-22" vertex="1">
          <mxGeometry x="1113" y="210" width="97" height="50" as="geometry" />
        </mxCell>
        <mxCell id="-qNcjnmQ07-9QRYc9Np3-78" value="SIm" style="text;html=1;align=center;verticalAlign=middle;whiteSpace=wrap;rounded=0;" parent="dNxyNK7c78bLwvsdeMH5-22" vertex="1">
          <mxGeometry x="1290" y="220" width="57" height="30" as="geometry" />
        </mxCell>
        <mxCell id="-qNcjnmQ07-9QRYc9Np3-79" value="Não" style="text;html=1;align=center;verticalAlign=middle;whiteSpace=wrap;rounded=0;" parent="dNxyNK7c78bLwvsdeMH5-22" vertex="1">
          <mxGeometry x="1130" y="80" width="97" height="50" as="geometry" />
        </mxCell>
        <mxCell id="wGDnF6_-XXZ3W9rCwHH7-5" style="edgeStyle=orthogonalEdgeStyle;rounded=0;orthogonalLoop=1;jettySize=auto;html=1;exitX=1;exitY=0.5;exitDx=0;exitDy=0;entryX=0.5;entryY=1;entryDx=0;entryDy=0;" edge="1" parent="dNxyNK7c78bLwvsdeMH5-19" source="-qNcjnmQ07-9QRYc9Np3-68" target="-qNcjnmQ07-9QRYc9Np3-53">
          <mxGeometry relative="1" as="geometry" />
        </mxCell>
      </root>
    </mxGraphModel>
  </diagram>
</mxfile>
